#!OML:ASF X:\für Bonn\!DataBase\2005_08_12_Daniel\c3d\Daniel.ASF
:FULLY-SPECIFIED
:DEGREES
183
root -0.294555 17.524 17.8567 -732.789 63.3796 -6.38027
lowerback 14.7799 -2.24501 9.00423
upperback 2.71424 -1.62572 -2.33151
thorax -5.7111 -0.946558 -7.31358
lowerneck 8.5112 12.7019 7.5928
upperneck 5.58752 19.2015 -20.8952
head 3.04447 9.83401 -7.2186
rclavicle 7.10655e-015 8.34896e-015
rhumerus -39.6649 21.2404 -101.196
rradius 104.811
rwrist -23.0078
rhand -18.7011 24.221
rfingers 7.12502
rthumb 7.59364 -5.6227
lclavicle 7.10655e-015 8.34896e-015
lhumerus -31.9744 24.8954 79.1001
lradius 33.3994
lwrist -15.7565
lhand -9.95746 -8.15863
lfingers 7.12502
lthumb 16.0246 21.1987
rfemur 11.1201 14.3815 24.7689
rtibia 12.157
rfoot -18.7432 -11.5192
rtoes -15.5266
lfemur -19.2099 -19.916 -12.1766
ltibia 32.7335
lfoot -14.5318 -1.24108
ltoes -11.877
184
root -0.339696 17.5299 17.8324 -732.82 64.4586 -6.42597
lowerback 14.8616 -2.17811 9.12155
upperback 2.723 -1.51168 -2.37735
thorax -5.72823 -0.8926 -7.45532
lowerneck 8.36373 12.8382 7.76032
upperneck 5.97763 19.5031 -20.9257
head 3.24964 9.96249 -7.20563
rclavicle 4.42793e-014 1.27222e-014
rhumerus -40.0134 20.6643 -101.83
rradius 102.928
rwrist -23.6719
rhand -18.6586 24.1425
rfingers 7.12502
rthumb 7.63465 -5.69967
lclavicle 4.42793e-014 1.27222e-014
lhumerus -31.8455 24.6053 79.4779
lradius 33.3666
lwrist -15.703
lhand -9.87855 -8.17248
lfingers 7.12502
lthumb 16.1006 21.1787
rfemur 11.1709 14.5252 24.8092
rtibia 12.0546
rfoot -19.0246 -12.6895
rtoes -15.4817
lfemur -19.4008 -18.7934 -12.4164
ltibia 32.7424
lfoot -14.9567 -0.251956
ltoes -11.3239
185
root -0.382866 17.5347 17.8081 -732.793 65.5489 -6.41638
lowerback 14.9202 -2.10268 9.20257
upperback 2.73419 -1.39479 -2.43236
thorax -5.72826 -0.835734 -7.58706
lowerneck 7.99835 12.9497 7.82268
upperneck 6.49684 19.7593 -20.7711
head 3.494 10.0473 -7.10202
rclavicle 6.26172e-015 -2.26615e-014
rhumerus -40.2701 20.0571 -102.341
rradius 101.001
rwrist -24.3786
rhand -18.5533 24.1891
rfingers 7.12502
rthumb 7.73632 -5.64935
lclavicle 6.26172e-015 -2.26615e-014
lhumerus -31.6848 24.3676 79.8113
lradius 33.2294
lwrist -15.761
lhand -9.82303 -8.08243
lfingers 7.12502
lthumb 16.1541 21.2644
rfemur 11.188 14.6788 24.8159
rtibia 12.0197
rfoot -19.3569 -13.8566
rtoes -15.3945
lfemur -19.597 -17.5947 -12.692
ltibia 32.7765
lfoot -15.4236 0.703202
ltoes -10.7173
186
root -0.423687 17.5391 17.7833 -732.801 66.6368 -6.43822
lowerback 14.9888 -2.0314 9.26763
upperback 2.72898 -1.28364 -2.46928
thorax -5.75136 -0.783201 -7.68863
lowerneck 7.65188 13.0574 7.83661
upperneck 7.01712 19.9954 -20.5332
head 3.71957 10.123 -6.96887
rclavicle 3.05134e-014 6.75868e-015
rhumerus -40.475 19.4721 -102.729
rradius 99.0635
rwrist -25.1276
rhand -18.3326 24.2393
rfingers 7.12502
rthumb 7.94929 -5.59122
lclavicle 3.05134e-014 6.75868e-015
lhumerus -31.5714 24.1942 80.095
lradius 33.0532
lwrist -15.8631
lhand -9.76984 -7.97249
lfingers 7.12502
lthumb 16.2053 21.3702
rfemur 11.1964 14.8083 24.8208
rtibia 12.0146
rfoot -19.7368 -14.9639
rtoes -15.2334
lfemur -19.7948 -16.2387 -12.966
ltibia 32.849
lfoot -15.9207 1.5423
ltoes -10.0822
187
root -0.463087 17.5428 17.7577 -732.799 67.7506 -6.44461
lowerback 15.0486 -1.96457 9.3335
upperback 2.7373 -1.18002 -2.52213
thorax -5.75648 -0.732914 -7.80691
lowerneck 7.31746 13.1559 7.83139
upperneck 7.4756 20.1967 -20.2576
head 3.91365 10.1851 -6.82654
rclavicle -6.34123e-014 -3.18055e-015
rhumerus -40.5936 18.8922 -103.022
rradius 97.1184
rwrist -25.9394
rhand -18.0195 24.3001
rfingers 7.12502
rthumb 8.25148 -5.51877
lclavicle -6.34123e-014 -3.18055e-015
lhumerus -31.412 24.0972 80.3169
lradius 32.7858
lwrist -16.106
lhand -9.71629 -7.83579
lfingers 7.12502
lthumb 16.2568 21.5027
rfemur 11.2082 14.9697 24.8202
rtibia 12.0393
rfoot -20.1609 -16.1093
rtoes -15.0802
lfemur -19.9939 -14.848 -13.2598
ltibia 32.9501
lfoot -16.5457 2.36923
ltoes -9.82578
188
root -0.500491 17.5451 17.7321 -732.825 68.8619 -6.48946
lowerback 15.0908 -1.8931 9.38584
upperback 2.73703 -1.07329 -2.56176
thorax -5.75962 -0.681117 -7.90351
lowerneck 7.04761 13.2276 7.80631
upperneck 7.87137 20.3473 -19.9877
head 4.06904 10.2296 -6.69473
rclavicle -3.96575e-014 -1.11319e-014
rhumerus -40.6722 18.3221 -103.195
rradius 95.1874
rwrist -26.762
rhand -17.5623 24.3008
rfingers 7.12502
rthumb 8.69274 -5.5002
lclavicle -3.96575e-014 -1.11319e-014
lhumerus -31.2829 24.0365 80.494
lradius 32.4867
lwrist -16.3993
lhand -9.6675 -7.68094
lfingers 7.12502
lthumb 16.3038 21.6537
rfemur 11.2076 15.0737 24.8094
rtibia 12.0692
rfoot -20.6119 -17.1831
rtoes -14.8491
lfemur -20.213 -13.4925 -13.5363
ltibia 33.0973
lfoot -17.2134 3.22145
ltoes -9.79997
189
root -0.53553 17.5466 17.706 -732.825 69.9759 -6.50051
lowerback 15.1266 -1.82338 9.41712
upperback 2.73986 -0.972821 -2.60104
thorax -5.75659 -0.631492 -7.98622
lowerneck 6.92055 13.2605 7.79015
upperneck 8.13923 20.4348 -19.8135
head 4.16366 10.2578 -6.6145
rclavicle -5.27773e-014 3.57812e-015
rhumerus -40.7346 17.8737 -103.29
rradius 93.2997
rwrist -27.6036
rhand -17.1076 24.2022
rfingers 7.12502
rthumb 9.13149 -5.58016
lclavicle -5.27773e-014 3.57812e-015
lhumerus -31.1565 24.0785 80.6063
lradius 32.1138
lwrist -16.781
lhand -9.63924 -7.57571
lfingers 7.12502
lthumb 16.331 21.7567
rfemur 11.2065 15.1625 24.775
rtibia 12.1252
rfoot -21.0758 -18.227
rtoes -14.6242
lfemur -20.4302 -12.1249 -13.8421
ltibia 33.2827
lfoot -17.6966 4.03705
ltoes -9.36465
190
root -0.569153 17.547 17.6799 -732.908 71.0898 -6.59195
lowerback 15.162 -1.75716 9.46341
upperback 2.73504 -0.874926 -2.64557
thorax -5.76211 -0.584342 -8.08309
lowerneck 7.02886 13.2403 7.83095
upperneck 8.22204 20.437 -19.7598
head 4.16912 10.2674 -6.61134
rclavicle 6.13748e-014 -1.59028e-015
rhumerus -40.793 17.5002 -103.319
rradius 91.4595
rwrist -28.4064
rhand -16.6434 23.9358
rfingers 7.12502
rthumb 9.57939 -5.82647
lclavicle 6.13748e-014 -1.59028e-015
lhumerus -31.077 24.1733 80.6101
lradius 31.7099
lwrist -17.2409
lhand -9.5666 -7.4666
lfingers 7.12502
lthumb 16.401 21.86
rfemur 11.2145 15.2551 24.7702
rtibia 12.1927
rfoot -21.5816 -19.2729
rtoes -14.3682
lfemur -20.6585 -10.7325 -14.1202
ltibia 33.5147
lfoot -17.9909 4.75316
ltoes -8.46905
191
root -0.599691 17.5456 17.6549 -732.996 72.2486 -6.68057
lowerback 15.1737 -1.69708 9.46144
upperback 2.73384 -0.794084 -2.67108
thorax -5.75328 -0.543531 -8.12706
lowerneck 7.11008 13.2092 7.84377
upperneck 8.34596 20.4304 -19.6992
head 4.18655 10.2692 -6.59999
rclavicle -1.19271e-014 1.94809e-014
rhumerus -40.8524 17.1526 -103.262
rradius 89.66
rwrist -29.1001
rhand -16.1162 23.4906
rfingers 7.12502
rthumb 10.088 -6.24759
lclavicle -1.19271e-014 1.94809e-014
lhumerus -31.0318 24.3493 80.5739
lradius 31.2588
lwrist -17.8183
lhand -9.5657 -7.42937
lfingers 7.12502
lthumb 16.4018 21.8972
rfemur 11.2523 15.3345 24.76
rtibia 12.2544
rfoot -22.1442 -20.3185
rtoes -14.1797
lfemur -20.892 -9.38029 -14.4109
ltibia 33.7907
lfoot -18.1928 5.39156
ltoes -7.57733
192
root -0.625 17.5432 17.6324 -733.157 73.4633 -6.84597
lowerback 15.1195 -1.66155 9.44221
upperback 2.7469 -0.755347 -2.69813
thorax -5.70153 -0.520174 -8.15325
lowerneck 7.17494 13.1832 7.86671
upperneck 8.46701 20.4313 -19.6454
head 4.20876 10.2738 -6.58999
rclavicle -3.69739e-014 -2.78299e-015
rhumerus -40.8852 16.7868 -103.167
rradius 87.8248
rwrist -29.6291
rhand -15.5815 22.9814
rfingers 7.12502
rthumb 10.6038 -6.73106
lclavicle -3.69739e-014 -2.78299e-015
lhumerus -31.025 24.6247 80.4271
lradius 30.8019
lwrist -18.4464
lhand -9.48693 -7.43633
lfingers 7.12502
lthumb 16.4777 21.8839
rfemur 11.3446 15.4164 24.7865
rtibia 12.2939
rfoot -22.7808 -21.3972
rtoes -13.8468
lfemur -21.1243 -8.15357 -14.6638
ltibia 34.1135
lfoot -18.3681 5.92622
ltoes -6.57424
193
root -0.644741 17.5388 17.6113 -733.441 74.7345 -7.12243
lowerback 15.034 -1.6374 9.42165
upperback 2.76004 -0.73449 -2.71668
thorax -5.63614 -0.504832 -8.16521
lowerneck 7.19067 13.1457 7.90164
upperneck 8.68128 20.4341 -19.5744
head 4.26682 10.2735 -6.57018
rclavicle 0 -1.98785e-015
rhumerus -40.9685 16.4079 -103.016
rradius 85.9798
rwrist -30.0263
rhand -15.0142 22.4643
rfingers 7.12502
rthumb 11.1511 -7.21942
lclavicle 0 -1.98785e-015
lhumerus -31.0649 24.952 80.2259
lradius 30.3199
lwrist -19.1203
lhand -9.45694 -7.4509
lfingers 7.12502
lthumb 16.5065 21.867
rfemur 11.502 15.4973 24.8473
rtibia 12.3003
rfoot -23.4902 -22.5208
rtoes -13.4676
lfemur -21.3442 -7.04255 -14.8823
ltibia 34.4869
lfoot -18.5112 6.37065
ltoes -5.85538
194
root -0.65892 17.5342 17.5912 -733.827 76.0301 -7.50095
lowerback 14.8912 -1.62814 9.38502
upperback 2.78934 -0.741375 -2.73116
thorax -5.52752 -0.499765 -8.15695
lowerneck 7.15129 13.1122 7.91895
upperneck 8.9459 20.4507 -19.4991
head 4.34918 10.2744 -6.53969
rclavicle -1.37658e-014 7.55382e-015
rhumerus -41.06 16.1472 -102.843
rradius 84.158
rwrist -30.3534
rhand -14.5902 21.9237
rfingers 7.12502
rthumb 11.56 -7.73748
lclavicle -1.37658e-014 7.55382e-015
lhumerus -31.1203 25.3127 79.9463
lradius 29.8311
lwrist -19.7839
lhand -9.3512 -7.48141
lfingers 7.12502
lthumb 16.6084 21.8279
rfemur 11.7065 15.5708 24.9324
rtibia 12.2831
rfoot -24.2404 -23.6501
rtoes -13.1389
lfemur -21.544 -6.05155 -15.0575
ltibia 34.909
lfoot -18.5867 6.71623
ltoes -5.41342
195
root -0.669258 17.5274 17.5711 -734.441 77.3411 -8.09634
lowerback 14.7466 -1.62062 9.35855
upperback 2.81635 -0.748177 -2.73204
thorax -5.42034 -0.494967 -8.13963
lowerneck 7.11149 13.0671 7.89857
upperneck 9.23211 20.4489 -19.387
head 4.42782 10.2652 -6.49411
rclavicle 2.32081e-014 3.37934e-014
rhumerus -41.1958 15.9536 -102.625
rradius 82.3983
rwrist -30.6857
rhand -14.2346 21.4571
rfingers 7.12502
rthumb 11.9029 -8.18457
lclavicle 2.32081e-014 3.37934e-014
lhumerus -31.2002 25.7376 79.6165
lradius 29.3186
lwrist -20.5012
lhand -9.28062 -7.49379
lfingers 7.12502
lthumb 16.6763 21.8099
rfemur 11.9619 15.659 25.0688
rtibia 12.238
rfoot -25.0527 -24.8119
rtoes -12.829
lfemur -21.7205 -5.16544 -15.1755
ltibia 35.377
lfoot -18.558 7.00398
ltoes -5.08821
196
root -0.677882 17.5188 17.5497 -735.271 78.6544 -8.90402
lowerback 14.6069 -1.62866 9.33796
upperback 2.84287 -0.774395 -2.73768
thorax -5.3206 -0.500335 -8.12731
lowerneck 7.03279 13.0235 7.89329
upperneck 9.54672 20.4585 -19.2938
head 4.5269 10.2586 -6.45156
rclavicle -1.63003e-014 9.14409e-015
rhumerus -41.3551 15.875 -102.427
rradius 80.7184
rwrist -31.0688
rhand -13.9793 20.9967
rfingers 7.12502
rthumb 12.149 -8.63057
lclavicle -1.63003e-014 9.14409e-015
lhumerus -31.3049 26.226 79.1949
lradius 28.8011
lwrist -21.244
lhand -9.1725 -7.4853
lfingers 7.12502
lthumb 16.7804 21.8096
rfemur 12.2331 15.7367 25.2199
rtibia 12.1871
rfoot -25.9095 -25.937
rtoes -12.4396
lfemur -21.8973 -4.33375 -15.2521
ltibia 35.8835
lfoot -18.4152 7.20151
ltoes -4.7777
197
root -0.685303 17.5105 17.5273 -736.358 79.9279 -9.95276
lowerback 14.5057 -1.63083 9.31381
upperback 2.85975 -0.789275 -2.74023
thorax -5.24993 -0.502045 -8.11224
lowerneck 6.98367 12.9697 7.86216
upperneck 9.85106 20.4504 -19.1891
head 4.6117 10.2454 -6.40645
rclavicle 2.28602e-015 -1.31198e-014
rhumerus -41.5801 15.8411 -102.243
rradius 79.1639
rwrist -31.5031
rhand -13.7485 20.5898
rfingers 7.12502
rthumb 12.3716 -9.02409
lclavicle 2.28602e-015 -1.31198e-014
lhumerus -31.4268 26.7671 78.7034
lradius 28.2358
lwrist -22.0114
lhand -9.11156 -7.48871
lfingers 7.12502
lthumb 16.839 21.8012
rfemur 12.5068 15.774 25.3689
rtibia 12.1536
rfoot -26.745 -26.9909
rtoes -12.0371
lfemur -22.0442 -3.61982 -15.2756
ltibia 36.4137
lfoot -18.2301 7.39334
ltoes -4.40877
